#!OML:ASF H:\Punching\Project 1\Capture day 1\Session 1\female.ASF
:FULLY-SPECIFIED
:DEGREES
1991
root 0.702343 15.6428 6.69255 11.7336 -21.2643 -4.18972
lowerback -5.6182 -1.56662 1.35971
upperback -7.82259 -2.19694 -0.103464
thorax -5.02003 -1.20623 -0.88813
lowerneck -10.1083 -7.43126 -1.50035
upperneck 24.2561 -10.9362 2.1807
head 9.51959 -5.08725 -0.241218
rclavicle -5.04913e-014 1.19271e-014
rhumerus -44.8768 -12.2012 -67.5025
rradius 24.6426
rwrist 12.964
rhand -8.26442 -5.94485
rfingers 7.12502
rthumb 17.6544 -35.1634
lclavicle -5.04913e-014 1.19271e-014
lhumerus -59.5479 15.405 60.041
lradius 25.4814
lwrist -23.6034
lhand -3.54748 20.058
lfingers 7.12502
lthumb 22.1884 48.8046
rfemur -14.3371 13.0629 15.3151
rtibia 22.8429
rfoot -15.1754 -17.2399
rtoes -5.79945
lfemur -12.6235 -7.07727 -19.1024
ltibia 28.3224
lfoot -25.3224 24.7745
ltoes 6.92938
1992
root 0.671929 15.6425 6.67534 11.6166 -21.2865 -4.12556
lowerback -5.60672 -1.58309 1.34916
upperback -7.84857 -2.21972 -0.12575
thorax -5.05536 -1.21829 -0.904601
lowerneck -10.1253 -7.3696 -1.46689
upperneck 24.3683 -10.8332 2.05954
head 9.55043 -5.04739 -0.278598
rclavicle 1.88845e-015 -3.97569e-015
rhumerus -44.9212 -11.7743 -67.7651
rradius 24.9975
rwrist 12.2867
rhand -8.2972 -5.92041
rfingers 7.12502
rthumb 17.6229 -35.1418
lclavicle 1.88845e-015 -3.97569e-015
lhumerus -59.937 15.5628 59.3782
lradius 25.4409
lwrist -23.6422
lhand -3.40055 20.0606
lfingers 7.12502
lthumb 22.3295 48.7903
rfemur -14.2864 12.9991 15.417
rtibia 22.9011
rfoot -15.208 -17.1827
rtoes -5.85571
lfemur -12.5134 -7.21111 -19.0501
ltibia 28.2805
lfoot -25.3273 24.9529
ltoes 6.9293
1993
root 0.641512 15.6427 6.65762 11.5035 -21.2904 -4.07224
lowerback -5.59189 -1.601 1.34435
upperback -7.87148 -2.24408 -0.13878
thorax -5.0892 -1.23108 -0.914636
lowerneck -10.149 -7.3139 -1.4392
upperneck 24.4824 -10.7366 1.93572
head 9.5837 -5.01116 -0.317124
rclavicle 2.88238e-015 -1.27222e-014
rhumerus -44.9416 -11.3821 -68.0055
rradius 25.3302
rwrist 11.7087
rhand -8.29795 -5.93543
rfingers 7.12502
rthumb 17.6221 -35.1568
lclavicle 2.88238e-015 -1.27222e-014
lhumerus -60.255 15.6562 58.8478
lradius 25.4508
lwrist -23.6108
lhand -3.24046 20.0455
lfingers 7.12502
lthumb 22.4832 48.7566
rfemur -14.2371 12.9197 15.5271
rtibia 22.9656
rfoot -15.2502 -17.0999
rtoes -5.86771
lfemur -12.4051 -7.36456 -18.9854
ltibia 28.2323
lfoot -25.3337 25.1444
ltoes 6.95431
1994
root 0.610982 15.6431 6.63982 11.3963 -21.2785 -4.03735
lowerback -5.57104 -1.61818 1.35218
upperback -7.89571 -2.26721 -0.140603
thorax -5.12787 -1.24359 -0.919852
lowerneck -10.163 -7.26294 -1.42351
upperneck 24.5905 -10.6448 1.81659
head 9.61432 -4.97814 -0.352237
rclavicle 1.5704e-014 1.59028e-014
rhumerus -44.9439 -11.0395 -68.2052
rradius 25.6232
rwrist 11.2541
rhand -8.27839 -5.94843
rfingers 7.12502
rthumb 17.641 -35.1681
lclavicle 1.5704e-014 1.59028e-014
lhumerus -60.5062 15.6939 58.4399
lradius 25.4985
lwrist -23.5213
lhand -3.08841 20.0039
lfingers 7.12502
lthumb 22.6291 48.6974
rfemur -14.1826 12.8309 15.6533
rtibia 23.0246
rfoot -15.2956 -16.9968
rtoes -5.84885
lfemur -12.3011 -7.53266 -18.902
ltibia 28.1903
lfoot -25.3479 25.3494
ltoes 7.00473
1995
root 0.580742 15.6435 6.62177 11.3026 -21.2479 -4.02941
lowerback -5.55152 -1.63355 1.38524
upperback -7.91864 -2.28792 -0.13096
thorax -5.16496 -1.25585 -0.927272
lowerneck -10.1824 -7.21845 -1.41404
upperneck 24.7018 -10.5604 1.69587
head 9.64773 -4.94917 -0.388152
rclavicle 9.8796e-014 1.90833e-014
rhumerus -44.9266 -10.7392 -68.3728
rradius 25.8856
rwrist 10.9024
rhand -8.2482 -5.95558
rfingers 7.12502
rthumb 17.67 -35.1727
lclavicle 9.8796e-014 1.90833e-014
lhumerus -60.6884 15.6866 58.1492
lradius 25.5867
lwrist -23.3769
lhand -2.94039 19.9496
lfingers 7.12502
lthumb 22.7712 48.6257
rfemur -14.123 12.7287 15.8033
rtibia 23.0672
rfoot -15.3373 -16.8751
rtoes -5.80875
lfemur -12.2141 -7.70883 -18.7909
ltibia 28.1667
lfoot -25.3715 25.5598
ltoes 7.06198
1996
root 0.550865 15.644 6.60356 11.2275 -21.1957 -4.0533
lowerback -5.53795 -1.64963 1.44801
upperback -7.94327 -2.30963 -0.106471
thorax -5.20125 -1.26978 -0.936007
lowerneck -10.1998 -7.17865 -1.41213
upperneck 24.817 -10.4803 1.57177
head 9.6826 -4.9233 -0.424583
rclavicle -4.87022e-015 -8.74653e-015
rhumerus -44.8937 -10.4599 -68.5171
rradius 26.125
rwrist 10.6311
rhand -8.21048 -5.98093
rfingers 7.12502
rthumb 17.7063 -35.1948
lclavicle -4.87022e-015 -8.74653e-015
lhumerus -60.8128 15.6511 57.959
lradius 25.7102
lwrist -23.1929
lhand -2.80926 19.8794
lfingers 7.12502
lthumb 22.897 48.54
rfemur -14.0559 12.6085 15.9838
rtibia 23.0822
rfoot -15.3672 -16.7391
rtoes -5.75125
lfemur -12.1529 -7.8934 -18.6458
ltibia 28.1718
lfoot -25.4084 25.7711
ltoes 7.12045
1997
root 0.521545 15.6442 6.5854 11.1696 -21.1232 -4.10954
lowerback -5.52629 -1.65905 1.54457
upperback -7.96946 -2.32274 -0.0749317
thorax -5.23912 -1.28107 -0.956202
lowerneck -10.2201 -7.14572 -1.41094
upperneck 24.943 -10.4107 1.4495
head 9.72243 -4.90203 -0.461995
rclavicle 2.69353e-014 -1.03368e-014
rhumerus -44.8555 -10.2529 -68.6157
rradius 26.3321
rwrist 10.458
rhand -8.18052 -6.00127
rfingers 7.12502
rthumb 17.7351 -35.2125
lclavicle 2.69353e-014 -1.03368e-014
lhumerus -60.8681 15.5765 57.8648
lradius 25.8658
lwrist -22.9748
lhand -2.69298 19.8045
lfingers 7.12502
lthumb 23.0086 48.4512
rfemur -13.9762 12.4767 16.1958
rtibia 23.0635
rfoot -15.3814 -16.6005
rtoes -5.68766
lfemur -12.1184 -8.07837 -18.4665
ltibia 28.21
lfoot -25.4567 25.9741
ltoes 7.15538
1998
root 0.492542 15.6447 6.56687 11.1352 -21.0351 -4.19623
lowerback -5.52369 -1.6704 1.66413
upperback -8.0012 -2.33842 -0.0278531
thorax -5.27833 -1.29454 -0.973267
lowerneck -10.233 -7.11402 -1.41083
upperneck 25.0727 -10.3411 1.32098
head 9.762 -4.88178 -0.50119
rclavicle -1.09332e-014 -1.70955e-014
rhumerus -44.8066 -10.0577 -68.6979
rradius 26.5197
rwrist 10.3271
rhand -8.15338 -6.00238
rfingers 7.12502
rthumb 17.7612 -35.2112
lclavicle -1.09332e-014 -1.70955e-014
lhumerus -60.8757 15.4881 57.8498
lradius 26.0486
lwrist -22.726
lhand -2.60127 19.722
lfingers 7.12502
lthumb 23.0966 48.3577
rfemur -13.8927 12.335 16.4386
rtibia 23.0092
rfoot -15.3749 -16.4635
rtoes -5.61037
lfemur -12.1206 -8.26834 -18.2512
ltibia 28.2811
lfoot -25.5139 26.1742
ltoes 7.17075
1999
root 0.463939 15.6454 6.54796 11.1204 -20.9299 -4.30371
lowerback -5.53063 -1.67959 1.80365
upperback -8.03735 -2.35147 0.02516
thorax -5.31756 -1.30774 -0.995463
lowerneck -10.2386 -7.08725 -1.40981
upperneck 25.2058 -10.2789 1.19302
head 9.80171 -4.86503 -0.541068
rclavicle -1.09332e-015 7.95139e-016
rhumerus -44.7578 -9.88346 -68.7649
rradius 26.6863
rwrist 10.2047
rhand -8.15321 -5.94635
rfingers 7.12502
rthumb 17.7614 -35.1552
lclavicle -1.09332e-015 7.95139e-016
lhumerus -60.8249 15.3759 57.9103
lradius 26.2526
lwrist -22.447
lhand -2.54301 19.635
lfingers 7.12502
lthumb 23.1525 48.2637
rfemur -13.8065 12.1806 16.7034
rtibia 22.9243
rfoot -15.3503 -16.3324
rtoes -5.52667
lfemur -12.1547 -8.46726 -18.0075
ltibia 28.3783
lfoot -25.5943 26.3519
ltoes 7.22454
2000
root 0.435543 15.6465 6.52847 11.1232 -20.8127 -4.42866
lowerback -5.54312 -1.6911 1.95015
upperback -8.07829 -2.36735 0.0906419
thorax -5.35875 -1.32248 -1.00866
lowerneck -10.2409 -7.06298 -1.41099
upperneck 25.3411 -10.2186 1.06066
head 9.84163 -4.85 -0.582318
rclavicle -7.37491e-014 -2.5842e-014
rhumerus -44.7057 -9.69183 -68.8312
rradius 26.8431
rwrist 10.0548
rhand -8.17125 -5.81782
rfingers 7.12502
rthumb 17.7441 -35.0282
lclavicle -7.37491e-014 -2.5842e-014
lhumerus -60.7304 15.2612 58.0351
lradius 26.478
lwrist -22.1452
lhand -2.51695 19.544
lfingers 7.12502
lthumb 23.1775 48.1696
rfemur -13.7225 12.0204 16.9879
rtibia 22.8164
rfoot -15.3081 -16.2137
rtoes -5.44209
lfemur -12.2168 -8.669 -17.7388
ltibia 28.4928
lfoot -25.6745 26.5188
ltoes 7.2848
2001
root 0.407332 15.6478 6.50842 11.1374 -20.6864 -4.55878
lowerback -5.56316 -1.70586 2.09457
upperback -8.12127 -2.3874 0.163526
thorax -5.39772 -1.33904 -1.0132
lowerneck -10.2382 -7.04057 -1.41339
upperneck 25.4733 -10.1598 0.926704
head 9.87968 -4.83625 -0.623897
rclavicle 6.85807e-015 1.11319e-014
rhumerus -44.6468 -9.47969 -68.9052
rradius 26.9955
rwrist 9.87011
rhand -8.2067 -5.6681
rfingers 7.12502
rthumb 17.7099 -34.8816
lclavicle 6.85807e-015 1.11319e-014
lhumerus -60.5918 15.1472 58.2164
lradius 26.7209
lwrist -21.816
lhand -2.52377 19.4507
lfingers 7.12502
lthumb 23.171 48.077
rfemur -13.6443 11.8544 17.2795
rtibia 22.6964
rfoot -15.2573 -16.1063
rtoes -5.3425
lfemur -12.298 -8.87093 -17.4589
ltibia 28.6144
lfoot -25.7522 26.6714
ltoes 7.34833
2002
root 0.379186 15.6494 6.48781 11.156 -20.5505 -4.68549
lowerback -5.58686 -1.72279 2.22798
upperback -8.15877 -2.41003 0.239887
thorax -5.42831 -1.35606 -1.00822
lowerneck -10.2524 -7.02328 -1.41589
upperneck 25.6015 -10.1081 0.795144
head 9.91991 -4.82529 -0.666215
rclavicle 1.23246e-014 1.19271e-015
rhumerus -44.5694 -9.26841 -68.9824
rradius 27.1501
rwrist 9.67393
rhand -8.22449 -5.5646
rfingers 7.12502
rthumb 17.6928 -34.7796
lclavicle 1.23246e-014 1.19271e-015
lhumerus -60.3937 15.04 58.4526
lradius 26.9774
lwrist -21.4647
lhand -2.57668 19.3468
lfingers 7.12502
lthumb 23.1202 47.9795
rfemur -13.5727 11.6882 17.5704
rtibia 22.5757
rfoot -15.2019 -16.0177
rtoes -5.2362
lfemur -12.3904 -9.06511 -17.1765
ltibia 28.7337
lfoot -25.8134 26.807
ltoes 7.39476
2003
root 0.351161 15.6511 6.46669 11.1725 -20.4077 -4.80271
lowerback -5.6086 -1.7397 2.34635
upperback -8.18815 -2.43229 0.315138
thorax -5.45069 -1.37191 -0.996126
lowerneck -10.2879 -7.01236 -1.41815
upperneck 25.724 -10.0664 0.671231
head 9.96285 -4.81783 -0.70804
rclavicle -1.59028e-014 7.55382e-015
rhumerus -44.4748 -9.06143 -69.067
rradius 27.3153
rwrist 9.47189
rhand -8.21797 -5.5298
rfingers 7.12502
rthumb 17.6991 -34.7443
lclavicle -1.59028e-014 7.55382e-015
lhumerus -60.1327 14.933 58.7445
lradius 27.2468
lwrist -21.0862
lhand -2.66437 19.2436
lfingers 7.12502
lthumb 23.036 47.8869
rfemur -13.509 11.5349 17.8536
rtibia 22.4655
rfoot -15.146 -15.957
rtoes -5.12385
lfemur -12.4847 -9.25032 -16.8998
ltibia 28.8427
lfoot -25.8503 26.9297
ltoes 7.41532
2004
root 0.323218 15.6528 6.44507 11.1802 -20.2574 -4.90066
lowerback -5.62789 -1.75909 2.44092
upperback -8.2103 -2.45736 0.388621
thorax -5.46579 -1.3877 -0.972703
lowerneck -10.33 -7.00679 -1.42694
upperneck 25.8315 -10.0322 0.557392
head 10.0029 -4.81344 -0.746263
rclavicle 3.47873e-015 -7.95139e-016
rhumerus -44.3676 -8.83396 -69.1686
rradius 27.501
rwrist 9.24737
rhand -8.18453 -5.60923
rfingers 7.12502
rthumb 17.7313 -34.8208
lclavicle 3.47873e-015 -7.95139e-016
lhumerus -59.819 14.8255 59.0902
lradius 27.5298
lwrist -20.6827
lhand -2.78968 19.1407
lfingers 7.12502
lthumb 22.9158 47.7989
rfemur -13.4534 11.3906 18.1193
rtibia 22.3739
rfoot -15.0954 -15.9193
rtoes -5.00409
lfemur -12.5744 -9.42208 -16.6399
ltibia 28.9351
lfoot -25.8559 27.0372
ltoes 7.3851
